<svg xmlns="http://www.w3.org/2000/svg" viewBox="0 0 137.32 152.7"><defs><style>.cls-1{fill:#fff;}</style></defs><title>Inst white symboAsset 4</title><g id="Layer_2" data-name="Layer 2"><g id="Layer_1-2" data-name="Layer 1"><path class="cls-1" d="M136.12,28.5c-5-.9-8.5-3-12.3-5.3-1.7-1-3.4-2-5.2-2.9-.1-.4-.2-.9-.3-1.3-2-6.6-8.5-8.8-14.8-11-.6-.2-1.2-.4-1.9-.6-3.8-1.2-8.5-2.7-11.8-6.3a6.16,6.16,0,0,0-2.4-1l-.5-.1.2.5c2,4.3,7.4,7.1,12.6,9.8,4.2,2.2,8.2,4.3,9.9,7-2.8-.4-8.1-.6-9-.2l-.2.1v.2c0,.2.6,4.6,9.5,8.7-2.5,9.5-10.9,22.4-20.5,31.5h-.2c-11.8,1.7-21.9,5.2-30.1,10.3A11,11,0,0,1,56,61.5v-.2h-.2c-.2,0-.3-.1-1.8,1.6V63a16.46,16.46,0,0,0-1.8,10.1l-.1.1a43.24,43.24,0,0,0-11.6,16.3,48.86,48.86,0,0,0-3.4,21.1c.3,5.6-.9,6.7-1.3,6.9-.6.3-1.7-.3-2.1-.6l-1.8-1.5-.4,2.4c-.5,3.1-3.4,8.6-9,14-6,5.8-13,9.6-19.9,10.6l-.7.1-.3.5A18.43,18.43,0,0,0,0,151.1l.1,1.6,1.5-.3c.3-.1,7.6-1.4,18-13.7,6.2-7.4,11.9-11.1,15.6-12.9a19.33,19.33,0,0,1,6.5-2.1l1-.1.2-1c.6-2.7,3.3-5.1,6.5-7.8,5.1-4.5,11.5-10,11.8-19.9.2-7.3-2-11.9-3.9-15.9a35.49,35.49,0,0,1-2.1-5c1.2-1,2.5-1.9,3.8-2.8a8.26,8.26,0,0,0,1.3.7c5,2.2,11.8.8,20.3-4.2a60.12,60.12,0,0,0,10-7.6,129.37,129.37,0,0,1,22.7-.8,30.78,30.78,0,0,1-6.4,12.6c-8.3,9.9-16.7,10.3-25.6,10.7-6.5.3-13.2.6-19.6,4.9l-.4.2.4.2c1,.6,2.2,1.3,2.7,1,5.4-3.2,11.1-3.4,17-3.7A62,62,0,0,0,92.51,84c5.52-1.25,11.07-4,16.51-10.44a34,34,0,0,0,7.1-14.2c4.6.3,9.4.9,14.2,1.6a31.58,31.58,0,0,1-1,5.8,8.34,8.34,0,0,0-.8-1.2,8.25,8.25,0,0,0-8-2.7c-3.8.8-6.7,4.1-8,9l-.1.4.4-.1c.9-.2,2.6-.6,2.8-1.1,1.6-4.2,4.1-5.3,5.5-5.6a5.72,5.72,0,0,1,5.4,1.8,5.16,5.16,0,0,1,.6,5.5,21.16,21.16,0,0,1-1.1,2.1c-3.9,6.1-12.6,9.5-18.9,10.2l-.7.1-.3.6c-2,3.7-1.8,8.8-1.8,9l.1,2.1,1.9-.9a55.67,55.67,0,0,0,16-11.5,46.81,46.81,0,0,0,6.4-8.6,12.4,12.4,0,0,0,1-2l.6-1.2c3.2-7.3,3-12.8,2.9-13.1l-.1-1.1-1.1-.2c-5.2-.8-10.3-1.5-15.2-1.8a66.83,66.83,0,0,0,.6-14.6V40.4c0-1.6-.1-3.5-.1-5,1.7,1.1,4.2.9,6.8.7s5.3-.4,7.7.5l.6.2.5-.3a8.29,8.29,0,0,0,4.4-7.2V28.2Zm-18.2,3a3.36,3.36,0,0,1,1.3-2.5c1-.7,2.4-.4,3.4-.1a3.55,3.55,0,0,1,.9.4.1.1,0,0,1,.1.1l1.7.9s-3.1-3.7-6.2-3.5a3.53,3.53,0,0,0-2.6,1.6c-2.2,2.9-2.1,7.6-1.9,12.1l.1,2c.1,4.3.3,9.2-.7,14.3a134.62,134.62,0,0,0-20.2.4,96,96,0,0,0,11.5-14.6,58.24,58.24,0,0,0,7.3-15.7,6.44,6.44,0,0,0,4-.6,4.26,4.26,0,0,0,2.1-2.9c1.3.7,2.5,1.4,3.8,2.2,3.5,2.1,7.1,4.3,12,5.4a5.33,5.33,0,0,1-2.3,3.4c-1.9-.7-4.7-.5-7.4-.2-.3,0-.6.1-1,.1-2.2.2-4.5.4-5.4-.6A2.47,2.47,0,0,1,117.92,31.5Zm-2.7-7.7a3.35,3.35,0,0,1-2.1.3,17.22,17.22,0,0,0,.2-3.1c.9.3,1.8.7,2.8,1.1A1.75,1.75,0,0,1,115.22,23.8Zm-2.3-5.8c-.1-.3-.2-.5-.3-.8-.8-1.8-3.3-4.1-5.5-5.6,3.8,1.4,7,4.1,8.2,7.1C114.62,18.5,113.72,18.2,112.92,18Zm-2.3,2.2a11.76,11.76,0,0,1-.1,3.2,1.42,1.42,0,0,0-.6-.2h0a23.07,23.07,0,0,1-5.6-3.6A25.45,25.45,0,0,1,110.62,20.2Zm-25,40.7a62.39,62.39,0,0,1-6.4,4.5c-7.4,4.4-13.5,5.8-17.6,4.1A73.25,73.25,0,0,1,85.62,60.9ZM54.82,71a12.19,12.19,0,0,1,.5-3.7,17.68,17.68,0,0,0,1.6,2.2A13.66,13.66,0,0,0,54.82,71Zm-15,39.4a46.81,46.81,0,0,1,3.2-20A43,43,0,0,1,53,76c.5,1.4,1.2,2.7,1.8,4.2,1.8,3.8,3.8,8,3.7,14.6-.2,8.7-5.9,13.6-10.8,17.9-3.2,2.8-6,5.2-7.1,8.3a22.52,22.52,0,0,0-6.4,2.2c-.9.4-1.8.9-2.7,1.4a20.12,20.12,0,0,0,2.2-4.8,4.18,4.18,0,0,0,3.3,0C39.22,118.8,40.12,115.7,39.82,110.4Zm-26.5,31.1a49.71,49.71,0,0,1-7.7,6.2,26,26,0,0,1-2.8,1.5,20.8,20.8,0,0,1,1-4.4A34.66,34.66,0,0,0,13.32,141.5ZM118,85a53.7,53.7,0,0,1-11,7.7,15,15,0,0,1,1.1-4.8A30.59,30.59,0,0,0,118,85Z"/></g></g></svg>